# xmcd
#
# Track frame offsets: 
#        150
#        16127
#        30580
#        45029
#        58654
#        72080
#        86760
#        101341
#        115765
#        128775
#        150225
#        165182
#        180742
#        194221
#        208790
#        248057
#        264155
#        277860
#        292304
#        305405
#        317248
#        330378
#        344299
#
# Disc length: 4786 seconds
#
# Revision: 4
# Processed by: cddbd v1.5.2PL0 Copyright (c) Steve Scherf et al.
# Submitted via: ExactAudioCopy v0.95b4
#
DISCID=3612b017
DTITLE=Various Artist - In The Mood, Big Band Hits [CD1]
DYEAR=2004
DGENRE=Big Band
TTITLE0=Glenn Miller - In The Mood
TTITLE1=Artie Shaw - Begin The Beguine
TTITLE2=Tommy Dorsey and The Sentimentalists - On The Sunny Side Of Th
TTITLE2=e Street
TTITLE3=Count Basie - One O'clock Jump
TTITLE4=Harry James and Helen Forrest - I've Heard That Song Before
TTITLE5=Jimmy Dorsey and Bob Everly and Helen O'Connell - Green Eyes
TTITLE6=Les Brown and Doris Day - Sentinental Journey
TTITLE7=Benny Goodman and Martha Tilton, trumpet Ziggy Elman - And The
TTITLE7=Angels Sing
TTITLE8=Duke Ellington - Take The 'A' Train
TTITLE9=Bunny Berigan - I Can't Get Started
TTITLE10=Charlie Burnet - Cherokee
TTITLE11=Glenn Miller-Tex Beneke and the Modernaires - Chattanooga Choo 
TTITLE11=Choo
TTITLE12=Glen Gray and  Frankie Carle - Sunrise Serenade
TTITLE13=Woody Herman - At The Woodchopper's Ball
TTITLE14=Benny Goodman - Sing Sing Sing
TTITLE15=Tommy Dorsey - I'm Getting Sentimental Over You
TTITLE16=Artie Shaw - Dancing In The Dark
TTITLE17=Billy Butterfield and Margaret Whiting - Moonlight In Vermont
TTITLE18=Sammy Kaye and the Sammy Kaye Choir - Daddy
TTITLE19=Jimmy Lunceford - Organ Grinder's Swing
TTITLE20=Riley Farley and Riley and Farley - The Music Goes Round And Roun
TTITLE20=d
TTITLE21=Harry James - You Made Me Love You
TTITLE22=Erskine Hawkins - Tuxedo Junction
EXTD=
EXTT0=
EXTT1=
EXTT2=
EXTT3=
EXTT4=
EXTT5=
EXTT6=
EXTT7=
EXTT8=
EXTT9=
EXTT10=
EXTT11=
EXTT12=
EXTT13=
EXTT14=
EXTT15=
EXTT16=
EXTT17=
EXTT18=
EXTT19=
EXTT20=
EXTT21=
EXTT22=
PLAYORDER=
